<?xml version="1.0" encoding="UTF-8" standalone="no"?>
<!-- Created with Inkscape (http://www.inkscape.org/) -->

<svg
   xmlns:dc="http://purl.org/dc/elements/1.1/"
   xmlns:cc="http://creativecommons.org/ns#"
   xmlns:rdf="http://www.w3.org/1999/02/22-rdf-syntax-ns#"
   xmlns:svg="http://www.w3.org/2000/svg"
   xmlns="http://www.w3.org/2000/svg"
   xmlns:sodipodi="http://sodipodi.sourceforge.net/DTD/sodipodi-0.dtd"
   xmlns:inkscape="http://www.inkscape.org/namespaces/inkscape"
   width="1084"
   height="317.31302"
   id="svg2"
   version="1.1"
   inkscape:version="0.48.3.1 r9886"
   sodipodi:docname="present.svg">
  <defs
     id="defs4" />
  <sodipodi:namedview
     id="base"
     pagecolor="#ffffff"
     bordercolor="#666666"
     borderopacity="1.0"
     inkscape:pageopacity="0.0"
     inkscape:pageshadow="2"
     inkscape:zoom="0.49497475"
     inkscape:cx="495.47261"
     inkscape:cy="396.58433"
     inkscape:document-units="px"
     inkscape:current-layer="layer1"
     showgrid="true"
     fit-margin-top="20"
     fit-margin-left="20"
     fit-margin-right="20"
     fit-margin-bottom="20"
     inkscape:window-width="859"
     inkscape:window-height="583"
     inkscape:window-x="214"
     inkscape:window-y="41"
     inkscape:window-maximized="0">
    <inkscape:grid
       type="xygrid"
       id="grid2985"
       empspacing="5"
       visible="true"
       enabled="true"
       snapvisiblegridlinesonly="true"
       originx="162px"
       originy="-105.31993px" />
  </sodipodi:namedview>
  <metadata
     id="metadata7">
    <rdf:RDF>
      <cc:Work
         rdf:about="">
        <dc:format>image/svg+xml</dc:format>
        <dc:type
           rdf:resource="http://purl.org/dc/dcmitype/StillImage" />
        <dc:title></dc:title>
      </cc:Work>
    </rdf:RDF>
  </metadata>
  <g
     inkscape:label="Layer 1"
     inkscape:groupmode="layer"
     id="layer1"
     transform="translate(162,-629.72924)">
    <path
       style="fill:#ff0000;stroke:#000000;stroke-width:4;stroke-linecap:butt;stroke-linejoin:miter;stroke-opacity:1"
       d="m 253.27743,762.1537 c 91.86676,39.50314 141.84263,-26.08964 141.84263,-26.08964 L 340,712.36218 c 0,0 -42.07524,47.21942 -97.1953,23.51754 -55.12005,-23.70188 -94.43885,-84.15048 -94.43885,-84.15048 l -44.64733,2.57209 c 0,0 94.43885,84.15048 149.55891,107.85237 z"
       id="path3074"
       inkscape:connector-curvature="0" />
    <path
       inkscape:connector-curvature="0"
       id="path3072"
       d="M 140,812.36218 C 44.728172,842.74768 49.982209,925.04225 49.982209,925.04225 l 57.163101,-18.23131 c 0,0 0.82306,-63.24019 57.98616,-81.4715 57.16309,-18.2313 126.48039,1.64613 126.48039,1.64613 l 32.03163,-31.20856 c 0,0 -126.48039,-1.64613 -183.64349,16.58517 z"
       style="fill:#ff0000;stroke:#000000;stroke-width:4;stroke-linecap:butt;stroke-linejoin:miter;stroke-opacity:1" />
    <path
       style="fill:#ff0000;stroke:#000000;stroke-width:4;stroke-linecap:butt;stroke-linejoin:miter;stroke-opacity:1"
       d="m 480,752.36218 c -100,0 -120,80 -120,80 l 60,0 c 0,0 20,-60 80,-60 60,0 120,40 120,40 l 40,-20 c 0,0 -120,-40 -180,-40 z"
       id="path3027"
       inkscape:connector-curvature="0" />
    <path
       style="fill:#ffffff;stroke:#000000;stroke-width:4;stroke-linecap:butt;stroke-linejoin:miter;stroke-opacity:1"
       d="m 22,562 -160,80 440,0 160,-80 240,0 120,-60 -240,0 -120,60 z"
       id="path3048"
       inkscape:connector-curvature="0"
       transform="translate(78,210.36218)" />
    <path
       style="fill:#ffffff;stroke:#000000;stroke-width:4;stroke-linecap:butt;stroke-linejoin:miter;stroke-opacity:1"
       d="m 100,772.36218 -240,0 120,-60 240,0 z"
       id="path3048-7"
       inkscape:connector-curvature="0"
       sodipodi:nodetypes="cccc" />
    <path
       style="fill:#ffffff;stroke:#000000;stroke-width:4;stroke-linecap:butt;stroke-linejoin:miter;stroke-opacity:1"
       d="m 142,502 440,0 80,-40 -440,0 z"
       id="path3068"
       inkscape:connector-curvature="0"
       transform="translate(78,210.36218)" />
    <path
       style="fill:#ffffff;stroke:#000000;stroke-width:4;stroke-linecap:butt;stroke-linejoin:miter;stroke-opacity:1"
       d="m 22,562 120,-60 440,0 -120,60 z"
       id="path3070"
       inkscape:connector-curvature="0"
       transform="translate(78,210.36218)" />
  </g>
</svg>
