<?xml version="1.0" encoding="UTF-8" standalone="no"?>
<!-- Created with Inkscape (http://www.inkscape.org/) -->

<svg
   xmlns:dc="http://purl.org/dc/elements/1.1/"
   xmlns:cc="http://creativecommons.org/ns#"
   xmlns:rdf="http://www.w3.org/1999/02/22-rdf-syntax-ns#"
   xmlns:svg="http://www.w3.org/2000/svg"
   xmlns="http://www.w3.org/2000/svg"
   xmlns:sodipodi="http://sodipodi.sourceforge.net/DTD/sodipodi-0.dtd"
   xmlns:inkscape="http://www.inkscape.org/namespaces/inkscape"
   id="svg3039"
   version="1.1"
   inkscape:version="0.48.3.1 r9886"
   width="819"
   height="1125"
   sodipodi:docname="skate.svg">
  <metadata
     id="metadata3045">
    <rdf:RDF>
      <cc:Work
         rdf:about="">
        <dc:format>image/svg+xml</dc:format>
        <dc:type
           rdf:resource="http://purl.org/dc/dcmitype/StillImage" />
      </cc:Work>
    </rdf:RDF>
  </metadata>
  <defs
     id="defs3043" />
  <sodipodi:namedview
     pagecolor="#ffffff"
     bordercolor="#666666"
     borderopacity="1"
     objecttolerance="10"
     gridtolerance="10"
     guidetolerance="10"
     inkscape:pageopacity="0"
     inkscape:pageshadow="2"
     inkscape:window-width="815"
     inkscape:window-height="544"
     id="namedview3041"
     showgrid="false"
     inkscape:zoom="0.29667058"
     inkscape:cx="508.76474"
     inkscape:cy="619.74449"
     inkscape:window-x="187"
     inkscape:window-y="14"
     inkscape:window-maximized="0"
     inkscape:current-layer="svg3039" />
  <path
     style="fill:#000000"
     d="m 602.19703,1099.8837 c -28.8013,-4.8699 -45.09908,-48.7423 -19.50678,-66.6674 -36.56156,-4.9508 -74.59751,-15.003 -112.16761,-15.6879 -30.7997,13.1267 -88.96446,-26.70205 -101.19868,11.6024 2.1232,36.879 -53.54303,57.8193 -63.6525,14.7795 -1.256,-21.8592 5.45089,-43.1624 -22.22749,-47.1021 -43.43266,-19.24766 -20.11495,-79.93983 16.54569,-93.72487 17.48199,-11.54736 51.29148,7.5805 36.56541,-28.73209 C 327.84524,824.17114 317.20258,773.45333 313.77165,722.45463 297.16819,690.64344 276.82678,659.83855 254,631.61869 217.40156,597.04946 205.19219,546.08358 190.29908,499.57752 c -7.58605,-32.64425 -10.8873,-62.08211 -18.34944,-94.24583 -10.47925,-24.52179 1.91233,-104.39821 -33.81531,-54.61882 -19.78833,33.68228 -44.364509,65.38172 -53.690131,104.04765 -23.089577,43.66132 41.204721,71.67896 32.633261,116.84691 9.43655,31.71196 58.69865,63.62609 47.58997,91.69699 -27.06239,-24.8724 -47.62027,-62.436 -69.366246,-94.54295 C 79.803456,532.99768 54.720663,498.45974 53.003739,459.87943 84.439869,465.4377 72.471721,400.36737 100.31692,382.82594 112.88303,354.94467 135.67197,320.63484 139.12436,296 102.71124,279.67785 73.282388,236.63327 82.804488,196.58585 41.432993,189.05587 66.706624,125.29822 63.505382,91.623698 70.007548,52.330408 114.09219,42.944974 147.11216,36.591902 c 44.32853,-6.774221 98.89615,5.378965 118.98553,50.11836 14.51395,27.408188 21.93562,70.745038 -13.098,81.182748 8.43245,36.36876 7.11099,78.7955 -9.54752,113.55106 -8.66763,22.30724 -59.55026,29.76819 -18.72973,47.87264 30.35738,25.50711 71.35166,31.33748 101.72693,57.96787 35.13188,23.80248 82.12078,0.32202 122.18102,2.94601 33.93934,0.56299 81.97039,-15.03588 107.02855,-10.45527 -22.98474,40.2948 -88.98079,19.1876 -129.74506,31.91588 -39.44995,14.38906 -74.89108,9.91074 -110.43065,-8.6912 -35.6758,-23.91606 -75.91675,-38.80173 -110.22201,-64.95576 -16.99413,-12.78799 -33.56442,-24.53506 -20.42275,6.72006 10.60937,42.92912 14.61987,88.08126 25.3825,130.62965 11.25556,41.23097 10.90057,97.73492 50.36109,122.4617 55.62294,22.32485 106.02801,55.75745 163.36792,74.14682 35.10335,17.12855 67.26587,44.43512 95.4287,55.24854 16.41431,37.9163 23.73833,78.50257 39.3528,116.39586 13.86012,28.79917 8.85948,87.61098 55.99977,77.3258 42.62042,-1.75544 83.07489,-17.67672 125.76875,-4.48659 52.08717,11.70462 22.5344,77.7762 -14.78387,88.39782 -33.2894,15.0417 -65.06768,22.6387 -74.69154,58.5274 -25.82183,-1.8329 -18.2079,40.5354 -48.82756,36.4724 z m 8.72296,-22.8131 c 14.65267,-35.8449 -44.73212,-4.4021 0,0 z M 596.5,1057.1667 c -3.08498,-4.4582 -2.76138,5.3774 0,0 z M 333.5,1043 c 26.14025,-22.7229 -29.6248,-19.0852 0,0 z m 296.89301,-0.5818 c 0.35549,-6.7768 -6.32022,4.7476 0,0 z M 644.5,1020.5487 c 13.33084,-5.6185 60.09447,-13.3929 23.99563,-20.5416 30.00893,5.6914 76.0176,-11.90865 84.7223,-46.0071 -8.07891,-34.85175 -63.7506,-22.67477 -90.44367,-17.43888 -17.23063,9.72401 -83.11077,-12.24496 -69.52674,17.01744 18.60145,31.74878 -15.82699,32.82083 -16.42078,-0.27316 -18.9791,-37.48267 -82.54413,-21.30158 -119.77067,-31.44934 -29.78209,-0.80668 -80.70235,-15.31284 -99.25198,4.72357 12.49772,16.62784 -6.48975,55.79919 -15.39797,13.92043 -0.004,-56.83776 -96.59551,0.97453 -58.76598,37.13358 46.37863,13.68642 96.12432,12.46976 143.94042,20.20462 43.31946,-0.59004 85.938,1.47817 128.60323,10.16824 34.85705,-1.4649 58.29693,10.4497 88.31621,12.5422 z m 5.57389,-13.9597 c 15.63188,-12.33524 24.25172,1.7313 0,0 z M 629.71025,965 c 0.70891,-6.96035 2.28182,6.96363 0,0 z M 638,956.10699 c 4.24456,-5.30451 4.32162,2.77185 0,0 z M 563.90744,918.385 C 553.19621,877.42868 539.02514,837.49291 519.7761,799.85984 500.3171,762.20862 484.45551,718.98187 442.69186,702 407.79773,681.82185 367.72025,672.69044 333.19548,651.54888 313.80455,653.37799 245.75291,600.0423 284,642.70372 c 36.86353,31.00953 44.86905,66.94805 54,111.58836 5.28908,38.93956 8.54292,75.38471 15.45228,113.70792 -11.70505,49.78109 43.68073,24.18222 70.61408,31.04279 40.7976,6.11047 80.16424,-1.54951 118.4294,16.16663 6.851,1.19814 14.34229,6.15004 21.41168,3.17558 z M 204.45062,289.80892 c 37.51856,-15.23141 39.36731,-63.24993 34.98048,-97.57335 -0.78823,-28.8815 -15.83253,19.78144 -38.35508,9.13176 -24.45124,5.36229 -26.69211,-9.40082 -47.5586,-0.66857 -14.94744,-6.95256 -28.34968,7.90572 -43.14004,1.55124 -28.505584,2.33318 -1.03462,59.74637 21.05631,68.12802 21.10998,15.76839 46.41873,26.03426 73.01693,19.4309 z M 100.59897,174.5 c 23.35276,-18.95299 64.90112,5.43776 96.40103,0.78183 21.28571,-8.383 35.92051,-36.93172 59.71961,-39.37997 C 258.35247,106.63699 231.68463,86.705294 209.70697,72.248056 173.07068,64.926221 120.96006,51.684451 96.875,90 c -18.416177,17.32287 -13.91585,37.18785 -18.305194,58 -1.539591,9.68316 6.692163,34.52394 22.029164,26.5 z M 227,88 c 3.90318,-3.653135 3.90318,3.653135 0,0 z m 147.63617,964.4943 c 2.03111,-5.063 3.88118,3.6429 0,0 z M 366,1052 c 2.55494,-3.5875 2.55494,3.5875 0,0 z M 204.67534,626.34201 c 1.88611,-9.40772 12.05077,2.69791 0,0 z"
     id="path3049"
     inkscape:connector-curvature="0" />
</svg>
